<svg version="1.1" xmlns="http://www.w3.org/2000/svg" xmlns:xlink="http://www.w3.org/1999/xlink" width="500" height="500"><g data-paper-data="{&quot;description&quot;:&quot;Logo for GoingTo\n================\n\nThis logo was generated by MarkMaker at http://emblemmatic.org/markmaker/ and may be composed of elements designed by others.\n\nThe font is Ubuntu Medium designed by Dalton Maag and released under the UFL license via Google Fonts: https://www.google.com/fonts/specimen/Ubuntu. The font includes this copyright statement: Copyright 2011 Canonical Ltd. Licensed under the Ubuntu Font Licence 1.0\n\nMarkMaker uses semantic data from the Princeton University WordNet database http://wordnet.princeton.edu and font descriptions from Google Fonts https://www.google.com/fonts.&quot;}" fill="#1bc0a7" fill-rule="nonzero" stroke="none" stroke-width="1" stroke-linecap="butt" stroke-linejoin="miter" stroke-miterlimit="10" stroke-dasharray="" stroke-dashoffset="0" font-family="none" font-weight="none" font-size="none" text-anchor="none" style="mix-blend-mode: normal"><g data-paper-data="{&quot;elementType&quot;:&quot;logo&quot;}"><g data-paper-data="{&quot;elementType&quot;:&quot;text&quot;}"><g data-paper-data="{&quot;baseline&quot;:75.10000000000001,&quot;elementType&quot;:&quot;row&quot;}"><g data-paper-data="{&quot;baselineProportion&quot;:0.7997870074547391,&quot;fontSize&quot;:100,&quot;baseline&quot;:75.10000000000001,&quot;elementType&quot;:&quot;word&quot;}"><path d="M87.03314,216.70174c-7.50482,0 -13.23865,2.33211 -17.20147,6.99632c-3.96283,4.66421 -5.94424,11.13449 -5.94424,19.41084c0,3.92776 0.47344,7.52236 1.42031,10.7838c0.94687,3.26144 2.34964,6.04945 4.20831,8.36402c1.85867,2.31457 4.17324,4.12064 6.94371,5.4182c2.77047,1.29756 6.01438,1.94634 9.73172,1.94634c2.31457,0 4.31352,-0.08767 5.99684,-0.26302c1.68332,-0.17535 3.01596,-0.4033 3.9979,-0.68385v-26.19674h13.25618v35.03419c-1.8236,0.70139 -4.9097,1.47291 -9.25829,2.31457c-4.34859,0.84166 -9.36349,1.26249 -15.04471,1.26249c-5.26039,0 -10.06488,-0.84166 -14.41347,-2.52499c-4.34859,-1.68332 -8.0484,-4.13817 -11.09942,-7.36454c-3.05103,-3.22637 -5.4182,-7.1892 -7.10153,-11.88848c-1.68332,-4.69928 -2.52499,-10.09995 -2.52499,-16.202c0,-6.10205 0.92934,-11.50272 2.78801,-16.202c1.85867,-4.69928 4.40119,-8.67964 7.62756,-11.94108c3.22637,-3.26144 7.01385,-5.73382 11.36244,-7.41715c4.34859,-1.68332 8.97773,-2.52499 13.88743,-2.52499c3.36665,0 6.36507,0.22795 8.99527,0.68385c2.63019,0.4559 4.89216,0.9644 6.7859,1.52551c1.89374,0.56111 3.45432,1.15729 4.68175,1.78853c1.22742,0.63125 2.08662,1.08715 2.57759,1.3677l-3.9979,10.8364c-2.10416,-1.26249 -4.71682,-2.33211 -7.83798,-3.20884c-3.12116,-0.87673 -6.40014,-1.3151 -9.83693,-1.3151z" data-paper-data="{&quot;elementType&quot;:&quot;letter&quot;,&quot;baseline&quot;:70.9,&quot;baselineProportion&quot;:0.9806362378976486,&quot;fontSize&quot;:100}"></path><path d="M173.93477,252.05155c0,4.34859 -0.63125,8.31142 -1.89374,11.88848c-1.26249,3.57706 -3.05103,6.62809 -5.3656,9.15308c-2.31457,2.52499 -5.10258,4.48887 -8.36402,5.89164c-3.26144,1.40277 -6.85604,2.10416 -10.7838,2.10416c-3.92776,0 -7.50482,-0.70139 -10.73119,-2.10416c-3.22637,-1.40277 -5.99684,-3.36665 -8.31142,-5.89164c-2.31457,-2.52499 -4.12064,-5.57601 -5.4182,-9.15308c-1.29756,-3.57706 -1.94634,-7.53989 -1.94634,-11.88848c0,-4.34859 0.64878,-8.29388 1.94634,-11.83588c1.29756,-3.542 3.12116,-6.57549 5.4708,-9.10047c2.34964,-2.52499 5.13765,-4.47133 8.36402,-5.83903c3.22637,-1.3677 6.76837,-2.05155 10.62599,-2.05155c3.85762,0 7.41715,0.68385 10.67859,2.05155c3.26144,1.3677 6.04945,3.31405 8.36402,5.83903c2.31457,2.52499 4.12064,5.55848 5.4182,9.10047c1.29756,3.542 1.94634,7.48729 1.94634,11.83588M160.88901,252.05155c0,-5.4708 -1.17482,-9.80186 -3.52446,-12.99316c-2.34964,-3.1913 -5.62862,-4.78695 -9.83693,-4.78695c-4.20831,0 -7.48729,1.59565 -9.83693,4.78695c-2.34964,3.1913 -3.52446,7.52236 -3.52446,12.99316c0,5.54094 1.17482,9.9246 3.52446,13.15097c2.34964,3.22637 5.62862,4.83956 9.83693,4.83956c4.20831,0 7.48729,-1.61319 9.83693,-4.83956c2.34964,-3.22637 3.52446,-7.61003 3.52446,-13.15097z" data-paper-data="{&quot;elementType&quot;:&quot;letter&quot;,&quot;baseline&quot;:53.6,&quot;baselineProportion&quot;:0.9745454545454545,&quot;fontSize&quot;:100}"></path><path d="M199.92109,279.61599h-12.73014v-55.02367h12.73014v55.02367M201.2888,208.49553c0,2.38471 -0.77152,4.27845 -2.31457,5.68122c-1.54305,1.40277 -3.36665,2.10416 -5.4708,2.10416c-2.17429,0 -4.03297,-0.70139 -5.57601,-2.10416c-1.54305,-1.40277 -2.31457,-3.29651 -2.31457,-5.68122c0,-2.45485 0.77152,-4.38366 2.31457,-5.78643c1.54305,-1.40277 3.40172,-2.10416 5.57601,-2.10416c2.10416,0 3.92776,0.70139 5.4708,2.10416c1.54305,1.40277 2.31457,3.33158 2.31457,5.78643z" data-paper-data="{&quot;elementType&quot;:&quot;letter&quot;,&quot;baseline&quot;:75.10000000000001,&quot;baselineProportion&quot;:1,&quot;fontSize&quot;:100}"></path><path d="M216.12309,226.38085c2.45485,-0.70139 5.64615,-1.3677 9.57391,-1.99895c3.92776,-0.63125 8.27635,-0.94687 13.04577,-0.94687c4.48887,0 8.24128,0.61371 11.25723,1.84114c3.01596,1.22742 5.4182,2.94582 7.20673,5.15518c1.78853,2.20936 3.05103,4.87463 3.78748,7.99579c0.73645,3.12116 1.10468,6.54042 1.10468,10.25776v30.93109h-12.73014v-28.93214c0,-2.94582 -0.19288,-5.45327 -0.57864,-7.52236c-0.38576,-2.06909 -1.01701,-3.75241 -1.89374,-5.04997c-0.87673,-1.29756 -2.06909,-2.24443 -3.57706,-2.84061c-1.50798,-0.59618 -3.34911,-0.89427 -5.52341,-0.89427c-1.61319,0 -3.29651,0.10521 -5.04997,0.31562c-1.75346,0.21042 -3.05103,0.38576 -3.89269,0.52604v44.39769h-12.73014z" data-paper-data="{&quot;elementType&quot;:&quot;letter&quot;,&quot;baseline&quot;:53.400000000000006,&quot;baselineProportion&quot;:1,&quot;fontSize&quot;:100}"></path><path d="M323.11941,274.03998c0,8.76732 -2.2269,15.18499 -6.68069,19.25302c-4.4538,4.06803 -11.27477,6.10205 -20.46291,6.10205c-3.36665,0 -6.64563,-0.28055 -9.83693,-0.84166c-3.1913,-0.56111 -6.08452,-1.29756 -8.67964,-2.20936l2.31457,-10.8364c2.17429,0.9118 4.64668,1.64826 7.41715,2.20936c2.77047,0.56111 5.76889,0.84166 8.99527,0.84166c5.12011,0 8.76732,-1.05208 10.94161,-3.15623c2.17429,-2.10416 3.26144,-5.22532 3.26144,-9.36349v-2.10416c-1.26249,0.63125 -2.92828,1.26249 -4.99737,1.89374c-2.06909,0.63125 -4.43626,0.94687 -7.10153,0.94687c-3.50693,0 -6.71576,-0.56111 -9.62651,-1.68332c-2.91075,-1.12222 -5.40067,-2.77047 -7.46975,-4.94477c-2.06909,-2.17429 -3.68227,-4.89216 -4.83956,-8.1536c-1.15729,-3.26144 -1.73593,-7.03139 -1.73593,-11.30984c0,-3.9979 0.61371,-7.68017 1.84114,-11.04682c1.22742,-3.36665 3.01596,-6.24233 5.3656,-8.62704c2.34964,-2.38471 5.20779,-4.24338 8.57443,-5.57601c3.36665,-1.33263 7.1892,-1.99895 11.46765,-1.99895c4.13817,0 8.06593,0.31562 11.78327,0.94687c3.71734,0.63125 6.87358,1.29756 9.4687,1.99895zM287.66439,250.68385c0,5.40067 1.17482,9.34596 3.52446,11.83588c2.34964,2.48992 5.38313,3.73488 9.10047,3.73488c2.03402,0 3.94529,-0.28055 5.73382,-0.84166c1.78853,-0.56111 3.24391,-1.22742 4.36612,-1.99895v-28.51131c-0.9118,-0.21042 -2.03402,-0.4033 -3.36665,-0.57864c-1.33263,-0.17535 -3.01596,-0.26302 -5.04997,-0.26302c-4.62914,0 -8.17114,1.52551 -10.62599,4.57654c-2.45485,3.05103 -3.68227,7.06646 -3.68227,12.04629" data-paper-data="{&quot;elementType&quot;:&quot;letter&quot;,&quot;baseline&quot;:53.400000000000006,&quot;baselineProportion&quot;:0.739612188365651,&quot;fontSize&quot;:100}"></path><path d="M390.76802,206.707v11.46765h-22.40926v61.44135h-13.36139v-61.44135h-22.40926v-11.46765z" data-paper-data="{&quot;elementType&quot;:&quot;letter&quot;,&quot;baseline&quot;:69.3,&quot;baselineProportion&quot;:1,&quot;fontSize&quot;:100}"></path><path d="M450,252.05155c0,4.34859 -0.63125,8.31142 -1.89374,11.88848c-1.26249,3.57706 -3.05103,6.62809 -5.3656,9.15308c-2.31457,2.52499 -5.10258,4.48887 -8.36402,5.89164c-3.26144,1.40277 -6.85604,2.10416 -10.7838,2.10416c-3.92776,0 -7.50482,-0.70139 -10.73119,-2.10416c-3.22637,-1.40277 -5.99684,-3.36665 -8.31142,-5.89164c-2.31457,-2.52499 -4.12064,-5.57601 -5.4182,-9.15308c-1.29756,-3.57706 -1.94634,-7.53989 -1.94634,-11.88848c0,-4.34859 0.64878,-8.29388 1.94634,-11.83588c1.29756,-3.542 3.12116,-6.57549 5.4708,-9.10047c2.34964,-2.52499 5.13765,-4.47133 8.36402,-5.83903c3.22637,-1.3677 6.76837,-2.05155 10.62599,-2.05155c3.85762,0 7.41715,0.68385 10.67859,2.05155c3.26144,1.3677 6.04945,3.31405 8.36402,5.83903c2.31457,2.52499 4.12064,5.55848 5.4182,9.10047c1.29756,3.542 1.94634,7.48729 1.94634,11.83588M436.95423,252.05155c0,-5.4708 -1.17482,-9.80186 -3.52446,-12.99316c-2.34964,-3.1913 -5.62862,-4.78695 -9.83693,-4.78695c-4.20831,0 -7.48729,1.59565 -9.83693,4.78695c-2.34964,3.1913 -3.52446,7.52236 -3.52446,12.99316c0,5.54094 1.17482,9.9246 3.52446,13.15097c2.34964,3.22637 5.62862,4.83956 9.83693,4.83956c4.20831,0 7.48729,-1.61319 9.83693,-4.83956c2.34964,-3.22637 3.52446,-7.61003 3.52446,-13.15097z" data-paper-data="{&quot;elementType&quot;:&quot;letter&quot;,&quot;baseline&quot;:53.6,&quot;baselineProportion&quot;:0.9745454545454545,&quot;fontSize&quot;:100}"></path></g></g></g></g></g></svg>